<svg xmlns="http://www.w3.org/2000/svg" viewBox="0 0 32 32">
  <defs>
    <linearGradient id="oceanGradient" x1="0%" y1="0%" x2="0%" y2="100%">
      <stop offset="0%" style="stop-color:#0ea5e9;stop-opacity:1" />
      <stop offset="100%" style="stop-color:#0369a1;stop-opacity:1" />
    </linearGradient>
    <linearGradient id="whaleBody" x1="0%" y1="0%" x2="100%" y2="100%">
      <stop offset="0%" style="stop-color:#1e293b;stop-opacity:1" />
      <stop offset="100%" style="stop-color:#334155;stop-opacity:1" />
    </linearGradient>
  </defs>
  
  <!-- Ocean background circle -->
  <circle cx="16" cy="16" r="16" fill="url(#oceanGradient)"/>
  
  <!-- Whale body - more anatomically correct -->
  <ellipse cx="16" cy="18" rx="10" ry="5" fill="url(#whaleBody)"/>
  
  <!-- Head bulge -->
  <ellipse cx="9" cy="17" rx="4" ry="3.5" fill="#1e293b"/>
  
  <!-- Tail flukes -->
  <path d="M 25 18 Q 28 15, 29 13 L 30 14 Q 29 17, 27 19 Q 26 20, 25 18 Z" 
        fill="#1e293b"/>
  <path d="M 25 18 Q 28 21, 29 23 L 30 22 Q 29 19, 27 17 Q 26 16, 25 18 Z" 
        fill="#0f172a"/>
  
  <!-- Pectoral fin -->
  <ellipse cx="12" cy="21" rx="3" ry="1.5" fill="#0f172a" transform="rotate(-20 12 21)"/>
  
  <!-- Eye -->
  <circle cx="10" cy="16.5" r="1" fill="white" opacity="0.9"/>
  
  <!-- Dramatic water spout -->
  <g opacity="0.7">
    <path d="M 8 14 Q 7 11, 6 8" 
          stroke="white" 
          stroke-width="1.2" 
          stroke-linecap="round" 
          fill="none"/>
    <path d="M 10 13 Q 9 10, 8 7" 
          stroke="#e0f2fe" 
          stroke-width="1" 
          stroke-linecap="round" 
          fill="none"/>
    <circle cx="6" cy="7" r="1" fill="white" opacity="0.5"/>
    <circle cx="8" cy="6" r="0.8" fill="white" opacity="0.4"/>
    <circle cx="7" cy="9" r="0.6" fill="#e0f2fe" opacity="0.5"/>
  </g>
  
  <!-- Subtle water ripples -->
  <path d="M 4 22 Q 8 23, 12 22 Q 16 21, 20 22 Q 24 23, 28 22" 
        stroke="white" 
        stroke-width="0.5" 
        fill="none"
        opacity="0.3"/>
</svg>